<svg xmlns="http://www.w3.org/2000/svg" width="64" height="64" viewBox="0 0 64 64" aria-label="Beach icon">
  <!-- Background circle -->
  <circle cx="32" cy="32" r="30" fill="#FFF8E6" stroke="#C27A31" stroke-width="2"/>

  <!-- Water line -->
  <path d="M10 44c4 0 6-3 10-3s6 3 10 3 6-3 10-3 6 3 10 3" fill="none" stroke="#4CA3DD" stroke-width="2" stroke-linecap="round"/>

  <!-- Island (sand) -->
  <ellipse cx="32" cy="46" rx="14" ry="4" fill="#F2C56B"/>

  <!-- Palm trunk -->
  <path d="M32 30c0 0-2 10-2 14h4c0-4-2-14-2-14z" fill="#8A5A44"/>

  <!-- Palm leaves -->
  <path d="M32 28c8-6 14-4 18 0-8 2-12 4-18 0z" fill="#2FA46F"/>
  <path d="M32 28c-8-6-14-4-18 0 8 2 12 4 18 0z" fill="#2FA46F"/>
  <path d="M32 28c0-8 4-12 8-14-2 6-4 10-8 14z" fill="#2FA46F"/>
</svg>