<svg width="64" height="64" viewBox="0 0 64 64" xmlns="http://www.w3.org/2000/svg" role="img" aria-label="Chuvisco à noite">
  <!-- Lua crescente difusa -->
  <path d="M40 28
           a16 16 0 1 1 -16 -16
           a12 12 0 1 0 16 16z"
        fill="#F4E1C1" opacity="0.6"/>

  <!-- Nuvem principal -->
  <g transform="translate(16,28)">
    <path d="M0 12
             a12 12 0 0 1 12-12
             a14 14 0 0 1 26 6
             h6 a10 10 0 0 1 0 20
             h-40 a10 10 0 0 1 -4-14z"
          fill="#C0C0C0" stroke="#808080" stroke-width="1"/>
  </g>

  <!-- Gotas de chuvisco -->
  <g fill="#6EC1E4">
    <ellipse cx="22" cy="52" rx="2" ry="4"/>
    <ellipse cx="28" cy="56" rx="2" ry="4"/>
    <ellipse cx="34" cy="52" rx="2" ry="4"/>
    <ellipse cx="40" cy="56" rx="2" ry="4"/>
  </g>
</svg>