<svg width="64" height="64" viewBox="0 0 64 64" xmlns="http://www.w3.org/2000/svg" role="img" aria-label="Neblina à noite">
  <!-- Lua crescente difusa -->
  <path d="M40 32
           a16 16 0 1 1 -16 -16
           a12 12 0 1 0 16 16z"
        fill="#F4E1C1" opacity="0.6"/>

  <!-- Camadas de neblina -->
  <g stroke="#A0A0A0" stroke-width="3" stroke-linecap="round" opacity="0.8">
    <line x1="8" y1="36" x2="56" y2="36" />
    <line x1="12" y1="44" x2="52" y2="44" />
    <line x1="16" y1="52" x2="48" y2="52" />
  </g>

  <!-- Nuvem leve para reforçar -->
  <g transform="translate(20,32)">
    <path d="M-4 8
             a8 8 0 0 1 8-8
             a10 10 0 0 1 18 4
             h4 a7 7 0 0 1 0 14
             h-26 a7 7 0 0 1 -4-10z"
          fill="#C0C0C0" stroke="#808080" stroke-width="1" opacity="0.7"/>
  </g>
</svg>