<svg width="64" height="64" viewBox="0 0 64 64" xmlns="http://www.w3.org/2000/svg" role="img" aria-label="Chuvisco congelante durante o dia">
  <!-- Sol difuso -->
  <circle cx="32" cy="16" r="10" fill="#FDB813" opacity="0.6"/>

  <!-- Nuvem -->
  <g transform="translate(16,24)">
    <path d="M0 12
             a12 12 0 0 1 12-12
             a14 14 0 0 1 26 6
             h6 a10 10 0 0 1 0 20
             h-40 a10 10 0 0 1 -4-14z"
          fill="#D0D0D0" stroke="#909090" stroke-width="1"/>
  </g>

  <!-- Gotas de chuvisco -->
  <g fill="#5BB6E6">
    <ellipse cx="22" cy="50" rx="2" ry="4"/>
    <ellipse cx="30" cy="52" rx="2" ry="4"/>
    <ellipse cx="38" cy="50" rx="2" ry="4"/>
  </g>

  <!-- Cristais de gelo -->
  <g stroke="#6EC1E4" stroke-width="2" opacity="0.9">
    <line x1="18" y1="44" x2="22" y2="48"/>
    <line x1="22" y1="44" x2="18" y2="48"/>
    <line x1="34" y1="44" x2="38" y2="48"/>
    <line x1="38" y1="44" x2="34" y2="48"/>
  </g>
</svg>