<svg width="64" height="64" viewBox="0 0 64 64" xmlns="http://www.w3.org/2000/svg" role="img" aria-label="Chuva forte à noite">
  <!-- Lua crescente difusa -->
  <path d="M40 28
           a16 16 0 1 1 -16 -16
           a12 12 0 1 0 16 16z"
        fill="#F4E1C1" opacity="0.4"/>

  <!-- Nuvem densa -->
  <g transform="translate(16,28)">
    <path d="M0 12
             a12 12 0 0 1 12-12
             a14 14 0 0 1 26 6
             h6 a10 10 0 0 1 0 20
             h-40 a10 10 0 0 1 -4-14z"
          fill="#B0B0B0" stroke="#707070" stroke-width="1"/>
  </g>

  <!-- Gotas de chuva forte -->
  <g fill="#1F78B4">
    <ellipse cx="18" cy="50" rx="3" ry="7"/>
    <ellipse cx="24" cy="56" rx="3" ry="7"/>
    <ellipse cx="30" cy="50" rx="3" ry="7"/>
    <ellipse cx="36" cy="56" rx="3" ry="7"/>
    <ellipse cx="42" cy="50" rx="3" ry="7"/>
    <ellipse cx="48" cy="56" rx="3" ry="7"/>
  </g>
</svg>