<svg width="64" height="64" viewBox="0 0 64 64" xmlns="http://www.w3.org/2000/svg" role="img" aria-label="Neve forte durante o dia">
  <!-- Sol difuso -->
  <circle cx="32" cy="16" r="10" fill="#FDB813" opacity="0.4"/>

  <!-- Nuvem densa -->
  <g transform="translate(16,24)">
    <path d="M0 12
             a12 12 0 0 1 12-12
             a14 14 0 0 1 26 6
             h6 a10 10 0 0 1 0 20
             h-40 a10 10 0 0 1 -4-14z"
          fill="#B0B0B0" stroke="#707070" stroke-width="1"/>
  </g>

  <!-- Flocos de neve fortes -->
  <g stroke="#6EC1E4" stroke-width="2">
    <line x1="18" y1="46" x2="22" y2="50"/>
    <line x1="22" y1="46" x2="18" y2="50"/>
    <line x1="20" y1="44" x2="20" y2="52"/>

    <line x1="28" y1="54" x2="32" y2="58"/>
    <line x1="32" y1="54" x2="28" y2="58"/>
    <line x1="30" y1="52" x2="30" y2="60"/>

    <line x1="40" y1="46" x2="44" y2="50"/>
    <line x1="44" y1="46" x2="40" y2="50"/>
    <line x1="42" y1="44" x2="42" y2="52"/>

    <line x1="50" y1="54" x2="54" y2="58"/>
    <line x1="54" y1="54" x2="50" y2="58"/>
    <line x1="52" y1="52" x2="52" y2="60"/>
  </g>
</svg>