<svg width="64" height="64" viewBox="0 0 64 64" xmlns="http://www.w3.org/2000/svg" role="img" aria-label="Pancadas leves de neve à noite">
  <!-- Lua crescente difusa -->
  <path d="M40 28
           a16 16 0 1 1 -16 -16
           a12 12 0 1 0 16 16z"
        fill="#F4E1C1" opacity="0.6"/>

  <!-- Nuvem clara -->
  <g transform="translate(16,28)">
    <path d="M0 12
             a12 12 0 0 1 12-12
             a14 14 0 0 1 26 6
             h6 a10 10 0 0 1 0 20
             h-40 a10 10 0 0 1 -4-14z"
          fill="#E0E5EA" stroke="#AEB7C2" stroke-width="1"/>
  </g>

  <!-- Flocos de neve leves em pancadas -->
  <g stroke="#6EC1E4" stroke-width="2">
    <line x1="22" y1="50" x2="26" y2="54"/>
    <line x1="26" y1="50" x2="22" y2="54"/>
    <line x1="24" y1="48" x2="24" y2="56"/>

    <line x1="38" y1="52" x2="42" y2="56"/>
    <line x1="42" y1="52" x2="38" y2="56"/>
    <line x1="40" y1="50" x2="40" y2="58"/>
  </g>
</svg>