<svg width="64" height="64" viewBox="0 0 64 64" xmlns="http://www.w3.org/2000/svg" role="img" aria-label="Chuviscos leves à noite">
  <!-- Lua crescente difusa -->
  <path d="M40 28
           a16 16 0 1 1 -16 -16
           a12 12 0 1 0 16 16z"
        fill="#F4E1C1" opacity="0.6"/>

  <!-- Nuvem clara -->
  <g transform="translate(16,28)">
    <path d="M0 12
             a12 12 0 0 1 12-12
             a14 14 0 0 1 26 6
             h6 a10 10 0 0 1 0 20
             h-40 a10 10 0 0 1 -4-14z"
          fill="#D9D9D9" stroke="#999999" stroke-width="1"/>
  </g>

  <!-- Gotas de chuvisco leve -->
  <g fill="#3498DB">
    <ellipse cx="24" cy="52" rx="2" ry="4"/>
    <ellipse cx="32" cy="54" rx="2" ry="4"/>
    <ellipse cx="40" cy="52" rx="2" ry="4"/>
  </g>
</svg>