<svg width="64" height="64" viewBox="0 0 64 64" xmlns="http://www.w3.org/2000/svg" role="img" aria-label="Chuva leve congelante à noite">
  <!-- Lua crescente difusa -->
  <path d="M40 28
           a16 16 0 1 1 -16 -16
           a12 12 0 1 0 16 16z"
        fill="#F4E1C1" opacity="0.6"/>

  <!-- Nuvem -->
  <g transform="translate(16,28)">
    <path d="M0 12
             a12 12 0 0 1 12-12
             a14 14 0 0 1 26 6
             h6 a10 10 0 0 1 0 20
             h-40 a10 10 0 0 1 -4-14z"
          fill="#D9E1E8" stroke="#9AA7B2" stroke-width="1"/>
  </g>

  <!-- Gotas de chuva leve -->
  <g fill="#3498DB">
    <ellipse cx="24" cy="52" rx="2" ry="5"/>
    <ellipse cx="32" cy="54" rx="2" ry="5"/>
    <ellipse cx="40" cy="52" rx="2" ry="5"/>
  </g>

  <!-- Cristais de gelo -->
  <g stroke="#6EC1E4" stroke-width="2" opacity="0.9">
    <line x1="20" y1="44" x2="24" y2="48"/>
    <line x1="24" y1="44" x2="20" y2="48"/>

    <line x1="36" y1="44" x2="40" y2="48"/>
    <line x1="40" y1="44" x2="36" y2="48"/>
  </g>
</svg>