<svg width="64" height="64" viewBox="0 0 64 64" xmlns="http://www.w3.org/2000/svg" role="img" aria-label="Mainly sunny">
  <!-- Sun -->
  <circle cx="38" cy="22" r="10" fill="#FDB813"/>
  <g stroke="#FDB813" stroke-width="3" stroke-linecap="round">
    <line x1="38" y1="6"  x2="38" y2="12"/>
    <line x1="38" y1="32" x2="38" y2="38"/>
    <line x1="22" y1="22" x2="28" y2="22"/>
    <line x1="48" y1="22" x2="54" y2="22"/>
    <line x1="27" y1="11" x2="31" y2="15"/>
    <line x1="45" y1="11" x2="41" y2="15"/>
    <line x1="27" y1="33" x2="31" y2="29"/>
    <line x1="45" y1="33" x2="41" y2="29"/>
  </g>

  <!-- Small cloud partially covering sun -->
  <g transform="translate(24,28)">
    <path d="M-2 8
             a6 6 0 0 1 6-6
             a7 7 0 0 1 12 2
             h3 a5 5 0 0 1 0 10
             h-19 a5 5 0 0 1 -2-6z"
          fill="#FFFFFF" stroke="#E0E6EF" stroke-width="1"/>
  </g>
</svg>