<svg width="64" height="64" viewBox="0 0 64 64" xmlns="http://www.w3.org/2000/svg" role="img" aria-label="Parcialmente nublado">
  <!-- Sol -->
  <circle cx="40" cy="20" r="10" fill="#FDB813"/>
  <g stroke="#FDB813" stroke-width="3" stroke-linecap="round">
    <line x1="40" y1="6"  x2="40" y2="12"/>
    <line x1="40" y1="28" x2="40" y2="34"/>
    <line x1="26" y1="20" x2="32" y2="20"/>
    <line x1="48" y1="20" x2="54" y2="20"/>
    <line x1="30" y1="10" x2="34" y2="14"/>
    <line x1="46" y1="10" x2="42" y2="14"/>
    <line x1="30" y1="30" x2="34" y2="26"/>
    <line x1="46" y1="30" x2="42" y2="26"/>
  </g>

  <!-- Nuvem cobrindo parcialmente o sol -->
  <g transform="translate(20,28)">
    <path d="M-4 8
             a8 8 0 0 1 8-8
             a10 10 0 0 1 18 4
             h4 a7 7 0 0 1 0 14
             h-26 a7 7 0 0 1 -4-10z"
          fill="#FFFFFF" stroke="#E0E6EF" stroke-width="1"/>
  </g>
</svg>