<svg width="64" height="64" viewBox="0 0 64 64" xmlns="http://www.w3.org/2000/svg" role="img" aria-label="Chuva durante a noite">
  <!-- Lua crescente difusa -->
  <path d="M40 28
           a16 16 0 1 1 -16 -16
           a12 12 0 1 0 16 16z"
        fill="#F4E1C1" opacity="0.5"/>

  <!-- Nuvem -->
  <g transform="translate(16,28)">
    <path d="M0 12
             a12 12 0 0 1 12-12
             a14 14 0 0 1 26 6
             h6 a10 10 0 0 1 0 20
             h-40 a10 10 0 0 1 -4-14z"
          fill="#C0C0C0" stroke="#808080" stroke-width="1"/>
  </g>

  <!-- Gotas de chuva moderada -->
  <g fill="#3498DB">
    <ellipse cx="20" cy="50" rx="2" ry="6"/>
    <ellipse cx="26" cy="56" rx="2" ry="6"/>
    <ellipse cx="32" cy="50" rx="2" ry="6"/>
    <ellipse cx="38" cy="56" rx="2" ry="6"/>
    <ellipse cx="44" cy="50" rx="2" ry="6"/>
  </g>
</svg>