<svg width="64" height="64" viewBox="0 0 64 64" xmlns="http://www.w3.org/2000/svg" role="img" aria-label="Neblina congelante de dia">
  <!-- Sol difuso -->
  <circle cx="32" cy="16" r="10" fill="#FDB813" opacity="0.6"/>

  <!-- Camadas de neblina -->
  <g stroke="#A0B8C8" stroke-width="3" stroke-linecap="round" opacity="0.9">
    <line x1="8" y1="28" x2="56" y2="28" />
    <line x1="12" y1="36" x2="52" y2="36" />
    <line x1="16" y1="44" x2="48" y2="44" />
    <line x1="20" y1="52" x2="44" y2="52" />
  </g>

  <!-- Nuvem difusa -->
  <g transform="translate(20,24)">
    <path d="M-4 8
             a8 8 0 0 1 8-8
             a10 10 0 0 1 18 4
             h4 a7 7 0 0 1 0 14
             h-26 a7 7 0 0 1 -4-10z"
          fill="#D0D8E0" stroke="#9AA5B1" stroke-width="1" opacity="0.8"/>
  </g>

  <!-- Cristais de gelo estilizados -->
  <g stroke="#6EC1E4" stroke-width="2">
    <line x1="12" y1="12" x2="16" y2="16"/>
    <line x1="16" y1="12" x2="12" y2="16"/>
    <line x1="48" y1="12" x2="52" y2="16"/>
    <line x1="52" y1="12" x2="48" y2="16"/>
  </g>
</svg>