<svg width="64" height="64" viewBox="0 0 64 64" xmlns="http://www.w3.org/2000/svg" role="img" aria-label="Pancadas de neve durante a noite">
  <!-- Lua crescente difusa -->
  <path d="M40 28
           a16 16 0 1 1 -16 -16
           a12 12 0 1 0 16 16z"
        fill="#F4E1C1" opacity="0.5"/>

  <!-- Nuvem -->
  <g transform="translate(16,28)">
    <path d="M0 12
             a12 12 0 0 1 12-12
             a14 14 0 0 1 26 6
             h6 a10 10 0 0 1 0 20
             h-40 a10 10 0 0 1 -4-14z"
          fill="#C0C0C0" stroke="#808080" stroke-width="1"/>
  </g>

  <!-- Flocos de neve moderados em pancadas -->
  <g stroke="#6EC1E4" stroke-width="2">
    <line x1="20" y1="50" x2="24" y2="54"/>
    <line x1="24" y1="50" x2="20" y2="54"/>
    <line x1="22" y1="48" x2="22" y2="56"/>

    <line x1="32" y1="56" x2="36" y2="60"/>
    <line x1="36" y1="56" x2="32" y2="60"/>
    <line x1="34" y1="54" x2="34" y2="62"/>

    <line x1="44" y1="50" x2="48" y2="54"/>
    <line x1="48" y1="50" x2="44" y2="54"/>
    <line x1="46" y1="48" x2="46" y2="56"/>
  </g>
</svg>